<svg width="900" height="1100" viewBox="0 0 900 1100" fill="none" xmlns="http://www.w3.org/2000/svg"><rect width="900" height="1100" fill="#F4F4F2"/><path d="M190 718C282 690 354 644 430 565C454 540 495 546 512 576L558 657C577 691 615 708 653 699L724 682C757 674 792 692 805 724L820 760C733 790 613 805 461 805C344 805 253 791 190 762V718Z" fill="#fff" stroke="#0A0A0A" stroke-width="8"/><path d="M190 762H820" stroke="#0A0A0A" stroke-width="8" stroke-linecap="round"/><path d="M430 565C446 641 489 681 558 657" stroke="#0A0A0A" stroke-width="7" stroke-linecap="round"/></svg>
