<svg width="900" height="1100" viewBox="0 0 900 1100" fill="none" xmlns="http://www.w3.org/2000/svg"><rect width="900" height="1100" fill="#F3F4F6"/><path d="M142 679C253 648 334 598 417 512C442 486 486 493 503 525L552 618C572 656 612 678 655 674L744 665C781 661 815 686 822 722L829 761C739 793 617 811 466 811C337 811 228 793 139 759L142 679Z" fill="#fff" stroke="#0A0A0A" stroke-width="8"/><path d="M153 762H833" stroke="#0A0A0A" stroke-width="8" stroke-linecap="round"/><path d="M491 579L428 631M531 626L465 684" stroke="#0A0A0A" stroke-width="7" stroke-linecap="round"/></svg>
